<svg width="48" height="48" viewBox="0 0 48 48" fill="none" xmlns="http://www.w3.org/2000/svg">
<path fill-rule="evenodd" clip-rule="evenodd" d="M14.7213 35.2035H33.2874V12.7907H19.8845C19.7884 12.7907 19.6357 12.8686 19.5537 12.9579C17.9815 14.6875 16.4037 16.4459 14.8626 18.19C14.7835 18.2764 14.7269 18.4609 14.7269 18.6166L14.7213 35.2035ZM35.1424 9C36.166 9 37.0001 9.85327 37.0001 10.8997V37.1032C37.0001 38.1496 36.166 39 35.1424 39H12.8635C11.8399 39 11.0058 38.1496 11.0058 37.1032C11.0058 36.8985 11.0029 18.6454 11.0001 17.9248C10.9944 17.1781 11.2263 16.5728 11.7268 16.0251L17.3198 9.78985C17.8005 9.25079 18.3576 9 19.0701 9H35.1424ZM18.4339 22.2113C17.6139 22.2113 16.9494 21.531 16.9494 20.6921C16.9494 19.8562 17.6167 19.173 18.4339 19.173H20.9618V16.5872C20.9618 15.7512 21.6291 15.068 22.4463 15.068C23.2635 15.068 23.9308 15.7483 23.9308 16.5872V20.6921C23.9308 21.5281 23.2635 22.2113 22.4463 22.2113H18.4339V22.2113Z" fill="white"/>
</svg>
