<svg fill="none" height="28" viewBox="0 0 28 28" width="28" xmlns="http://www.w3.org/2000/svg"><path d="m14 24c-2.7778 0-5.13889-.9722-7.08333-2.9167-1.94445-1.9444-2.91667-4.3055-2.91667-7.0833s.97222-5.13889 2.91667-7.08333c1.94444-1.94445 4.30553-2.91667 7.08333-2.91667.1481 0 .3056.00463.4722.01389.1667.00926.3797.02315.6389.04167-.6667.59259-1.1852 1.32407-1.5555 2.19444-.3704.87037-.5556 1.78704-.5556 2.75 0 1.6667.5833 3.0833 1.75 4.25s2.5833 1.75 4.25 1.75c.963 0 1.8796-.1713 2.75-.5139s1.6019-.8194 2.1944-1.4305c.0186.2222.0325.4027.0417.5416.0093.1389.0139.2732.0139.4028 0 2.7778-.9722 5.1389-2.9167 7.0833-1.9444 1.9445-4.3055 2.9167-7.0833 2.9167zm0-1.6667c2.0185 0 3.7778-.625 5.2778-1.875s2.4352-2.7176 2.8055-4.4027c-.4629.2037-.9598.3564-1.4907.4583-.5309.1018-1.0617.1528-1.5926.1528-2.1239 0-3.9326-.7468-5.4262-2.2405-1.4937-1.4936-2.2405-3.3023-2.2405-5.4262 0-.44444.0463-.9213.1389-1.43056.0926-.50925.2593-1.08796.5-1.73611-1.8148.5-3.31942 1.51389-4.51387 3.04167-1.19444 1.5278-1.79166 3.2361-1.79166 5.125 0 2.3148.81018 4.2824 2.43055 5.9028 1.62037 1.6203 3.58798 2.4305 5.90278 2.4305z" fill="#fff"/></svg>