<svg width="28" height="28" viewBox="0 0 28 28" fill="none" xmlns="http://www.w3.org/2000/svg">
<path fill-rule="evenodd" clip-rule="evenodd" d="M14 5.25C9.16872 5.25 5.25 9.2673 5.25 14.2201C5.25 18.1824 7.77303 21.5393 11.2086 22.75C11.638 22.805 11.7991 22.5298 11.7991 22.3098C11.7991 22.0896 11.7991 21.5393 11.7991 20.7689C9.38344 21.3192 8.8466 19.5582 8.8466 19.5582C8.47088 18.5126 7.88037 18.2374 7.88037 18.2374C7.07513 17.6871 7.93403 17.6871 7.93403 17.6871C8.79293 17.7421 9.27605 18.6226 9.27605 18.6226C10.0813 19.9984 11.316 19.6132 11.7991 19.3931C11.8528 18.7877 12.1211 18.4025 12.3359 18.1824C10.4034 17.9623 8.36348 17.1918 8.36348 13.7248C8.36348 12.7343 8.6856 11.9638 9.27605 11.3035C9.22238 11.1383 8.90032 10.2028 9.38344 8.99214C9.38344 8.99214 10.1349 8.77199 11.7991 9.92769C12.4969 9.70754 13.2485 9.65253 14 9.65253C14.7515 9.65253 15.5031 9.76255 16.2009 9.92769C17.8651 8.77199 18.6166 8.99214 18.6166 8.99214C19.0997 10.2028 18.7776 11.1383 18.724 11.3585C19.2607 11.9638 19.6365 12.7893 19.6365 13.7798C19.6365 17.2468 17.5966 17.9623 15.6641 18.1824C15.9862 18.4575 16.2546 19.0079 16.2546 19.8333C16.2546 21.044 16.2546 21.9795 16.2546 22.3098C16.2546 22.5298 16.4156 22.805 16.8451 22.75C20.3344 21.5393 22.8037 18.1824 22.8037 14.2201C22.75 9.2673 18.8313 5.25 14 5.25Z" fill="#FFFAF5"/>
</svg>
