<svg fill="none" height="28" viewBox="0 0 28 28" width="28" xmlns="http://www.w3.org/2000/svg"><path d="m13.9941 17.5c.9706 0 1.7976-.3397 2.4809-1.0191s1.025-1.5044 1.025-2.475-.3397-1.7976-1.0191-2.4809-1.5044-1.025-2.475-1.025-1.7976.3397-2.4809 1.0191-1.025 1.5044-1.025 2.475.3397 1.7976 1.0191 2.4809 1.5044 1.025 2.475 1.025zm.0059 1.5c-1.3833 0-2.5625-.4875-3.5375-1.4625s-1.4625-2.1542-1.4625-3.5375.4875-2.5625 1.4625-3.5375 2.1542-1.4625 3.5375-1.4625 2.5625.4875 3.5375 1.4625 1.4625 2.1542 1.4625 3.5375-.4875 2.5625-1.4625 3.5375-2.1542 1.4625-3.5375 1.4625zm-10.25-4.25c-.2125 0-.39062-.0723-.53437-.2169s-.21563-.3237-.21563-.5375c0-.2137.07188-.3914.21563-.5331s.32187-.2125.53437-.2125h2.5c.2125 0 .39063.0723.53438.2169s.21562.3237.21562.5375c0 .2137-.07187.3914-.21562.5331s-.32188.2125-.53438.2125zm18 0c-.2125 0-.3906-.0723-.5344-.2169-.1437-.1446-.2156-.3237-.2156-.5375 0-.2137.0719-.3914.2156-.5331.1438-.1417.3219-.2125.5344-.2125h2.5c.2125 0 .3906.0723.5344.2169.1437.1446.2156.3237.2156.5375 0 .2137-.0719.3914-.2156.5331-.1438.1417-.3219.2125-.5344.2125zm-7.7544-7.75c-.2137 0-.3914-.07187-.5331-.21562s-.2125-.32188-.2125-.53438v-2.5c0-.2125.0723-.39062.2169-.53437s.3237-.21563.5375-.21563c.2137 0 .3914.07188.5331.21563s.2125.32187.2125.53437v2.5c0 .2125-.0723.39063-.2169.53438s-.3237.21562-.5375.21562zm0 18c-.2137 0-.3914-.0718-.5331-.2155-.1417-.1438-.2125-.322-.2125-.5345v-2.5c0-.2125.0723-.3906.2169-.5344.1446-.1437.3237-.2156.5375-.2156.2137 0 .3914.0719.5331.2156.1417.1438.2125.3219.2125.5344v2.5c0 .2125-.0723.3907-.2169.5345-.1446.1437-.3237.2155-.5375.2155zm-5.9956-15.95-1.425-1.4c-.15-.15-.22191-.33002-.21572-.54007.00616-.21007.07721-.38924.21315-.5375.14826-.14829.32743-.22243.5375-.22243.21005 0 .39007.075.54007.225l1.4 1.425c.13333.15.2.325.2.525s-.06667.37083-.2.5125-.30417.2125-.5125.2125-.3875-.06667-.5375-.2zm12.35 12.375-1.4-1.425c-.1333-.15-.2-.3281-.2-.5344 0-.2062.0708-.3781.2125-.5156.1417-.15.3125-.225.5125-.225s.375.075.525.225l1.425 1.4c.15.15.2219.33.2157.5401-.0061.21-.0772.3892-.2131.5375-.1483.1483-.3275.2224-.5375.2224-.2101 0-.3901-.075-.5401-.225zm-1.4-12.375c-.15-.15-.225-.325-.225-.525s.075-.375.225-.525l1.4-1.425c.15-.15.33-.22191.5401-.21572.21.00616.3892.07721.5375.21315.1483.14826.2224.32743.2224.5375 0 .21005-.075.39007-.225.54007l-1.425 1.4c-.1333.13333-.303.2-.5091.2s-.3863-.06667-.5409-.2zm-12.37757 12.3776c-.14829-.1483-.22243-.3275-.22243-.5375 0-.2101.075-.3901.225-.5401l1.425-1.4c.14667-.15.32083-.225.5225-.225s.37424.075.51773.225c.15651.15.23477.325.23477.525s-.075.375-.225.525l-1.4 1.425c-.15.15-.33002.2219-.54007.2157-.21007-.0061-.38924-.0772-.5375-.2131z" fill="#fff"/></svg>