<svg width="28" height="28" viewBox="0 0 28 28" fill="none" xmlns="http://www.w3.org/2000/svg">
<path d="M10.7205 22.1667C17.9847 22.1667 21.9579 16.3323 21.9579 11.2727C21.9579 11.1071 21.954 10.9421 21.9463 10.7778C22.7171 10.2374 23.3878 9.56334 23.9167 8.79527C23.2091 9.09982 22.4476 9.3051 21.6483 9.39762C22.4638 8.92366 23.0898 8.17343 23.3847 7.27994C22.6216 7.71884 21.7761 8.03758 20.8768 8.20925C20.1568 7.46579 19.1304 7 17.9947 7C15.8133 7 14.0446 8.71465 14.0446 10.8286C14.0446 11.1294 14.0792 11.4213 14.147 11.7013C10.8652 11.5415 7.95389 10.0179 6.00655 7.70093C5.66698 8.26677 5.4714 8.92436 5.4714 9.62529C5.4714 10.954 6.16901 12.126 7.22851 12.812C6.58096 12.7926 5.9719 12.6201 5.43983 12.3327C5.43906 12.3484 5.43906 12.3649 5.43906 12.3813C5.43906 14.2355 6.80041 15.7837 8.60763 16.1345C8.27571 16.2218 7.92694 16.2689 7.56656 16.2689C7.31246 16.2689 7.06454 16.2442 6.82426 16.1995C7.3271 17.7207 8.78473 18.8277 10.5141 18.8584C9.16203 19.8855 7.45951 20.4976 5.60923 20.4976C5.29045 20.4976 4.97629 20.4797 4.66675 20.4445C6.41465 21.5329 8.4898 22.1667 10.7205 22.1667Z" fill="#FFFAF5"/>
</svg>
