<svg width="48" height="48" viewBox="0 0 48 48" fill="none" xmlns="http://www.w3.org/2000/svg">
<path d="M18.3778 38C30.8307 38 37.6419 27.9982 37.6419 19.3247C37.6419 19.0407 37.6353 18.7579 37.6221 18.4763C38.9434 17.5499 40.0932 16.3943 41 15.0776C39.7869 15.5997 38.4814 15.9516 37.1113 16.1102C38.5092 15.2977 39.5823 14.0116 40.0879 12.4799C38.7798 13.2323 37.3304 13.7787 35.7886 14.073C34.5544 12.7985 32.7949 12 30.8479 12C27.1083 12 24.0763 14.9394 24.0763 18.5633C24.0763 19.079 24.1357 19.5794 24.2518 20.0593C18.626 19.7854 13.6351 17.1736 10.2968 13.2016C9.71468 14.1716 9.3794 15.2989 9.3794 16.5005C9.3794 18.7783 10.5753 20.7874 12.3916 21.9634C11.2815 21.9301 10.2374 21.6345 9.32528 21.1418C9.32396 21.1687 9.32396 21.1969 9.32396 21.225C9.32396 24.4037 11.6577 27.0577 14.7558 27.6591C14.1868 27.8088 13.5889 27.8895 12.9711 27.8895C12.5355 27.8895 12.1105 27.8472 11.6986 27.7705C12.5606 30.3784 15.0594 32.2761 18.0241 32.3286C15.7062 34.0894 12.7876 35.1387 9.61568 35.1387C9.0692 35.1387 8.53064 35.108 8 35.0478C10.9964 36.9136 14.5538 38 18.3778 38Z" fill="white"/>
</svg>
